<svg xmlns="http://www.w3.org/2000/svg" width="192" height="170" viewBox="0 0 192 170" version="1.1"><path d="M 171.838 22.126 C 150.944 33.464, 123.926 62.004, 112.842 84.446 C 106.065 98.168, 105.895 98.425, 106.641 93.828 C 107.035 91.396, 106.734 90.024, 105.598 89.081 C 100.395 84.763, 111.105 61.283, 119.823 57.896 C 122.378 56.904, 122.493 53.687, 119.989 53.283 C 116.455 52.712, 102.058 77.519, 102.017 84.250 C 101.997 87.532, 100.051 87.988, 99.884 84.750 C 99.779 82.714, 99.722 82.690, 99.281 84.500 C 99.013 85.600, 98.196 87.176, 97.466 88.002 C 96.736 88.828, 95.995 91.528, 95.820 94.002 L 95.500 98.500 89.795 87.190 C 82.380 72.490, 77.468 65.735, 64.855 52.892 C 28.795 16.175, 4.562 8.918, 18.980 39.154 C 21.883 45.243, 23.910 51.906, 26.477 63.794 C 31.526 87.184, 32.859 88.978, 49 94.082 C 53.393 95.472, 54.098 95.966, 52.500 96.540 C 34.828 102.890, 31.891 106.298, 33.136 119.010 C 36 148.258, 74.277 176.760, 84.250 157.071 C 87.594 150.469, 88.037 146.752, 85.171 149.345 C 82.975 151.333, 81.936 151.405, 79.646 149.730 C 77.464 148.135, 79.011 143.895, 84.959 135.170 C 87.084 132.052, 89.386 128.262, 90.072 126.750 C 91.390 123.849, 93.660 122.837, 92.589 125.629 C 91.047 129.646, 89.863 135.947, 90.240 138.122 L 90.653 140.500 91.719 138 L 92.785 135.500 93.312 138 C 99.498 167.304, 104.546 168.227, 107.650 140.623 C 108.304 134.811, 108.327 134.777, 109.734 137.462 C 111.883 141.563, 112.411 139.768, 111.067 132.933 C 109.894 126.971, 110.243 123.797, 111.654 127.607 C 112.039 128.648, 112.622 129.725, 112.949 130 C 114.203 131.055, 121.930 143.629, 122.887 146.173 C 124.302 149.936, 122.018 151.823, 117.920 150.276 C 114.216 148.878, 114.198 149.748, 117.782 157 C 121.228 163.973, 125.039 164.665, 136.865 160.467 C 146.835 156.928, 148.137 155.971, 155.673 146.637 C 175.283 122.349, 173.848 104.242, 151.774 97.420 L 146.048 95.650 152.275 93.472 C 169.366 87.496, 169.800 86.820, 175.047 58 C 176.553 49.730, 178.245 44.189, 181.071 38.270 C 188.754 22.177, 184.725 15.132, 171.838 22.126 M 27.667 28.667 C 26.356 29.977, 27.069 30.690, 31.997 32.999 C 39.567 36.544, 40.454 33.803, 32.972 29.986 C 28.593 27.751, 28.584 27.749, 27.667 28.667 M 168.272 28.850 C 165.130 29.767, 161.245 33.248, 162.789 33.763 C 164.320 34.273, 173 30.149, 173 28.911 C 173 27.896, 171.600 27.878, 168.272 28.850 M 167.750 35.708 C 163.740 37.318, 162.789 39, 165.889 39 C 167.895 39, 172.845 35.507, 172 34.687 C 171.725 34.420, 169.813 34.880, 167.750 35.708 M 29.500 37.473 C 31.826 39.350, 35.809 40.524, 36.730 39.603 C 37.888 38.446, 35.387 36.935, 31.414 36.393 C 27.684 35.884, 27.594 35.935, 29.500 37.473 M 154.430 40.322 C 153.650 42.355, 154.538 45, 156 45 C 157.883 45, 158.323 41.894, 156.673 40.245 C 155.207 38.778, 155.020 38.785, 154.430 40.322 M 42.688 40.646 C 41.216 42.117, 41.990 45.149, 43.750 44.810 C 44.712 44.624, 45.500 43.616, 45.500 42.570 C 45.500 40.580, 43.869 39.464, 42.688 40.646 M 170.500 42 C 170.160 42.550, 170.584 43, 171.441 43 C 172.298 43, 173 42.550, 173 42 C 173 41.450, 172.577 41, 172.059 41 C 171.541 41, 170.840 41.450, 170.500 42 M 28 43 C 28 43.550, 28.450 44, 29 44 C 29.550 44, 30 43.550, 30 43 C 30 42.450, 29.550 42, 29 42 C 28.450 42, 28 42.450, 28 43 M 163.399 44.404 C 162.363 47.102, 163.561 48.689, 164.835 46.308 C 165.607 44.867, 165.661 43.909, 164.996 43.497 C 164.440 43.154, 163.722 43.562, 163.399 44.404 M 34 44.794 C 34 45.323, 34.727 46.358, 35.615 47.096 C 37.013 48.256, 37.181 48.182, 36.865 46.551 C 36.489 44.607, 34 43.082, 34 44.794 M 31.553 50.915 C 31.231 51.436, 31.394 52.125, 31.915 52.447 C 32.436 52.769, 33.125 52.606, 33.447 52.085 C 33.769 51.564, 33.606 50.875, 33.085 50.553 C 32.564 50.231, 31.875 50.394, 31.553 50.915 M 146.430 51.321 C 145.630 53.408, 146.630 54.770, 147.975 53.425 C 148.543 52.857, 148.558 51.903, 148.012 51.020 C 147.245 49.778, 147.005 49.824, 146.430 51.321 M 167 51 C 167 51.550, 167.450 52, 168 52 C 168.550 52, 169 51.550, 169 51 C 169 50.450, 168.550 50, 168 50 C 167.450 50, 167 50.450, 167 51 M 52 52.441 C 52 53.234, 52.450 54.160, 53 54.500 C 53.550 54.840, 54 54.191, 54 53.059 C 54 51.927, 53.550 51, 53 51 C 52.450 51, 52 51.648, 52 52.441 M 88 53.686 C 88 54.613, 89.005 56.441, 90.233 57.748 C 91.462 59.056, 93.914 64.485, 95.683 69.813 C 97.451 75.141, 98.921 78.337, 98.949 76.915 C 99.005 74.100, 96.003 64.284, 92.784 56.750 C 90.802 52.114, 88 50.319, 88 53.686 M 152.500 54.797 C 145.186 57.924, 144.011 59.028, 140.429 66.141 C 136.133 74.671, 135.967 74.454, 145.669 72.991 C 159.931 70.841, 163.907 68.146, 161.086 62.538 C 160.522 61.417, 159.935 58.929, 159.781 57.008 C 159.447 52.851, 158.048 52.426, 152.500 54.797 M 40.727 55.250 C 40.485 55.938, 40.685 57.575, 41.172 58.890 C 41.811 60.615, 41.631 61.750, 40.528 62.969 C 35.602 68.412, 46.059 74, 61.171 74 L 64.166 74 60.312 66.750 C 55.517 57.730, 42.536 50.108, 40.727 55.250 M 63.589 61.856 C 61.784 64.776, 64.880 70.024, 73.904 79.347 C 87.881 93.785, 91.395 93.989, 82.149 79.826 C 74.637 68.318, 65.226 59.207, 63.589 61.856 M 127.871 67.756 C 121.728 74.270, 113.458 87.874, 114.231 90.194 C 114.738 91.713, 127.670 79.906, 131.830 74.126 C 137.182 66.693, 138.319 64.089, 136.940 62.428 C 135.135 60.253, 134.713 60.501, 127.871 67.756 M 142.709 76.554 C 130.346 79.616, 128.921 80.391, 123.489 87.013 C 118.219 93.437, 118.738 95.020, 125.520 93.206 C 133.504 91.071, 137.829 92.728, 131 95.306 C 126.039 97.179, 127.623 98.004, 133.072 96.386 C 153.322 90.372, 162.582 83.767, 157.694 78.821 C 156.976 78.095, 156.090 76.713, 155.725 75.750 C 154.903 73.577, 154.678 73.591, 142.709 76.554 M 43.989 78.250 C 39.834 85.064, 43.398 88.235, 62.399 94.634 C 72.544 98.051, 75.645 98.419, 70.093 95.548 C 63.355 92.064, 66.338 91.406, 78.750 93.638 C 83.216 94.441, 82.886 93.131, 76.998 86.688 C 71.423 80.588, 67.255 78.531, 56.162 76.406 C 46.319 74.520, 46.257 74.530, 43.989 78.250 M 99.673 99.409 C 99.402 100.115, 99.534 103.124, 99.966 106.096 C 100.397 109.068, 100.833 110.825, 100.935 110 C 101.036 109.175, 101.468 106.382, 101.894 103.794 C 102.640 99.268, 100.983 95.997, 99.673 99.409 M 58.143 100.890 C 56.341 102.032, 57.531 105.679, 60.165 107.088 C 62.303 108.232, 83 106.386, 83 105.051 C 83 102.996, 60.709 99.265, 58.143 100.890 M 132.500 100.694 C 131.400 100.948, 127.350 102.100, 123.500 103.255 L 116.500 105.353 120.500 106.119 C 133.070 108.525, 144 107.025, 144 102.893 C 144 99.924, 139.533 99.070, 132.500 100.694 M 153.553 104.915 C 153.231 105.436, 153.394 106.125, 153.915 106.447 C 154.436 106.769, 155.125 106.606, 155.447 106.085 C 155.769 105.564, 155.606 104.875, 155.085 104.553 C 154.564 104.231, 153.875 104.394, 153.553 104.915 M 37.553 105.915 C 37.231 106.436, 37.394 107.125, 37.915 107.447 C 38.436 107.769, 39.125 107.606, 39.447 107.085 C 39.769 106.564, 39.606 105.875, 39.085 105.553 C 38.564 105.231, 37.875 105.394, 37.553 105.915 M 72.138 110.161 C 63.692 114.341, 61.182 123.226, 68.281 123.812 C 77.635 124.585, 91.057 112.440, 83.980 109.609 C 78.738 107.511, 77.361 107.576, 72.138 110.161 M 146 109 C 144.625 109.440, 142.037 109.845, 140.250 109.900 C 133.513 110.107, 137.930 113.480, 146.469 114.651 C 151.180 115.297, 153.597 113.457, 152.515 110.048 C 151.837 107.912, 150.213 107.651, 146 109 M 40.553 109.915 C 40.231 110.436, 40.394 111.125, 40.915 111.447 C 41.436 111.769, 42.125 111.606, 42.447 111.085 C 42.769 110.564, 42.606 109.875, 42.085 109.553 C 41.564 109.231, 40.875 109.394, 40.553 109.915 M 48.529 109.954 C 48.143 110.577, 48.313 111.672, 48.905 112.386 C 49.498 113.100, 49.687 113.980, 49.325 114.342 C 48.963 114.704, 50.781 115, 53.365 115 C 58.658 115, 65.871 112.442, 64.427 111.078 C 62.876 109.612, 49.332 108.654, 48.529 109.954 M 115.946 111.102 C 113.912 114.901, 126.153 124, 133.297 124 C 139.484 124, 138.071 115.986, 131.048 111.253 C 126.407 108.126, 117.586 108.037, 115.946 111.102 M 158.553 109.915 C 158.231 110.436, 158.394 111.125, 158.915 111.447 C 159.436 111.769, 160.125 111.606, 160.447 111.085 C 160.769 110.564, 160.606 109.875, 160.085 109.553 C 159.564 109.231, 158.875 109.394, 158.553 109.915 M 52 117.891 C 47.285 118.529, 44.761 122.927, 48.325 124.294 C 50.615 125.173, 57.328 123.272, 58.737 121.345 C 61.365 117.751, 59.623 116.858, 52 117.891 M 142.296 118.670 C 140.769 122.651, 151.112 125.980, 154.042 122.450 C 155.930 120.175, 153.578 118.387, 147.713 117.639 C 143.827 117.143, 142.808 117.337, 142.296 118.670 M 113.022 119.628 C 113.077 124.325, 126.679 147, 129.442 147 C 138.069 147, 127.688 122.626, 118.088 120.340 C 116.664 120.001, 114.938 119.281, 114.250 118.740 C 113.344 118.026, 113.006 118.270, 113.022 119.628 M 80.937 121.263 C 76.416 124.310, 72.473 130.320, 70.570 137.066 C 68.653 143.861, 68.653 143.510, 70.571 145.429 C 72.990 147.847, 73.387 147.545, 78.876 139.096 C 89.976 122.013, 90.833 114.594, 80.937 121.263 M 99.423 123.339 C 98.672 125.296, 99.667 127, 101.559 127 C 103.439 127, 103.410 124.585, 101.512 123.010 C 100.309 122.012, 99.909 122.075, 99.423 123.339 M 51.514 127.366 C 49.413 128.903, 50.798 134.325, 53.563 135.386 C 56.237 136.412, 60.207 129.762, 58.535 127.057 C 57.617 125.571, 53.735 125.742, 51.514 127.366 M 142.507 126.989 C 141.819 128.102, 144.682 134.685, 146.285 135.676 C 147.633 136.509, 152 131.446, 152 129.051 C 152 126.244, 144.036 124.514, 142.507 126.989 M 61.629 131.250 C 57.991 136.030, 57.338 139.575, 59.846 140.918 C 64.923 143.635, 67.210 141.453, 68.533 132.630 C 69.435 126.613, 65.722 125.871, 61.629 131.250 M 132.423 129.340 C 131.714 131.187, 135.761 141.694, 137.427 142.334 C 138.860 142.883, 143 139.611, 143 137.929 C 143 131.859, 134.199 124.712, 132.423 129.340 M 98 131 C 98 131.550, 99.350 132, 101 132 C 102.650 132, 104 131.550, 104 131 C 104 130.450, 102.650 130, 101 130 C 99.350 130, 98 130.450, 98 131 M 154.553 133.915 C 154.231 134.436, 154.394 135.125, 154.915 135.447 C 155.436 135.769, 156.125 135.606, 156.447 135.085 C 156.769 134.564, 156.606 133.875, 156.085 133.553 C 155.564 133.231, 154.875 133.394, 154.553 133.915 M 44.500 135 C 44.160 135.550, 44.584 136, 45.441 136 C 46.298 136, 47 135.550, 47 135 C 47 134.450, 46.577 134, 46.059 134 C 45.541 134, 44.840 134.450, 44.500 135 M 98 139 C 98 139.550, 99.350 140, 101 140 C 102.650 140, 104 139.550, 104 139 C 104 138.450, 102.650 138, 101 138 C 99.350 138, 98 138.450, 98 139 M 99.543 146.931 C 98.803 148.128, 100.684 149.313, 102.016 148.490 C 103.135 147.799, 102.400 146, 101 146 C 100.515 146, 99.859 146.419, 99.543 146.931" stroke="none" fill="#1d132d" fill-rule="evenodd"/><path d="M 27.667 28.667 C 26.356 29.977, 27.069 30.690, 31.997 32.999 C 39.567 36.544, 40.454 33.803, 32.972 29.986 C 28.593 27.751, 28.584 27.749, 27.667 28.667 M 168.272 28.850 C 165.130 29.767, 161.245 33.248, 162.789 33.763 C 164.320 34.273, 173 30.149, 173 28.911 C 173 27.896, 171.600 27.878, 168.272 28.850 M 167.750 35.708 C 163.740 37.318, 162.789 39, 165.889 39 C 167.895 39, 172.845 35.507, 172 34.687 C 171.725 34.420, 169.813 34.880, 167.750 35.708 M 29.500 37.473 C 31.826 39.350, 35.809 40.524, 36.730 39.603 C 37.888 38.446, 35.387 36.935, 31.414 36.393 C 27.684 35.884, 27.594 35.935, 29.500 37.473 M 170.500 42 C 170.160 42.550, 170.584 43, 171.441 43 C 172.298 43, 173 42.550, 173 42 C 173 41.450, 172.577 41, 172.059 41 C 171.541 41, 170.840 41.450, 170.500 42 M 28 43 C 28 43.550, 28.450 44, 29 44 C 29.550 44, 30 43.550, 30 43 C 30 42.450, 29.550 42, 29 42 C 28.450 42, 28 42.450, 28 43 M 134.924 52.750 L 132.500 55.500 135.250 53.076 C 137.820 50.810, 138.459 50, 137.674 50 C 137.495 50, 136.258 51.237, 134.924 52.750 M 152.500 54.797 C 145.186 57.924, 144.011 59.028, 140.429 66.141 C 136.133 74.671, 135.967 74.454, 145.669 72.991 C 159.931 70.841, 163.907 68.146, 161.086 62.538 C 160.522 61.417, 159.935 58.929, 159.781 57.008 C 159.447 52.851, 158.048 52.426, 152.500 54.797 M 40.727 55.250 C 40.485 55.938, 40.685 57.575, 41.172 58.890 C 41.811 60.615, 41.631 61.750, 40.528 62.969 C 35.602 68.412, 46.059 74, 61.171 74 L 64.166 74 60.312 66.750 C 55.517 57.730, 42.536 50.108, 40.727 55.250 M 67 54.878 C 67 55.360, 67.749 56.373, 68.664 57.128 C 70.172 58.372, 70.216 58.290, 69.129 56.250 C 67.889 53.923, 67 53.350, 67 54.878 M 63.589 61.856 C 61.784 64.776, 64.880 70.024, 73.904 79.347 C 87.881 93.785, 91.395 93.989, 82.149 79.826 C 74.637 68.318, 65.226 59.207, 63.589 61.856 M 127.871 67.756 C 121.728 74.270, 113.458 87.874, 114.231 90.194 C 114.738 91.713, 127.670 79.906, 131.830 74.126 C 137.182 66.693, 138.319 64.089, 136.940 62.428 C 135.135 60.253, 134.713 60.501, 127.871 67.756 M 142.709 76.554 C 130.346 79.616, 128.921 80.391, 123.489 87.013 C 118.219 93.437, 118.738 95.020, 125.520 93.206 C 133.504 91.071, 137.829 92.728, 131 95.306 C 126.039 97.179, 127.623 98.004, 133.072 96.386 C 153.322 90.372, 162.582 83.767, 157.694 78.821 C 156.976 78.095, 156.090 76.713, 155.725 75.750 C 154.903 73.577, 154.678 73.591, 142.709 76.554 M 43.989 78.250 C 39.834 85.064, 43.398 88.235, 62.399 94.634 C 72.544 98.051, 75.645 98.419, 70.093 95.548 C 63.355 92.064, 66.338 91.406, 78.750 93.638 C 83.216 94.441, 82.886 93.131, 76.998 86.688 C 71.423 80.588, 67.255 78.531, 56.162 76.406 C 46.319 74.520, 46.257 74.530, 43.989 78.250 M 98 80.375 C 98 81.131, 97.715 83.269, 97.368 85.125 C 96.928 87.474, 97.056 88.196, 97.790 87.500 C 99.375 85.996, 100.463 79, 99.111 79 C 98.500 79, 98 79.619, 98 80.375 M 58.143 100.890 C 56.341 102.032, 57.531 105.679, 60.165 107.088 C 62.303 108.232, 83 106.386, 83 105.051 C 83 102.996, 60.709 99.265, 58.143 100.890 M 132.500 100.694 C 131.400 100.948, 127.350 102.100, 123.500 103.255 L 116.500 105.353 120.500 106.119 C 133.070 108.525, 144 107.025, 144 102.893 C 144 99.924, 139.533 99.070, 132.500 100.694 M 101.195 104.500 C 101.215 106.150, 101.439 106.704, 101.693 105.731 C 101.947 104.758, 101.930 103.408, 101.656 102.731 C 101.382 102.054, 101.175 102.850, 101.195 104.500 M 72.138 110.161 C 63.692 114.341, 61.182 123.226, 68.281 123.812 C 77.635 124.585, 91.057 112.440, 83.980 109.609 C 78.738 107.511, 77.361 107.576, 72.138 110.161 M 146 109 C 144.625 109.440, 142.037 109.845, 140.250 109.900 C 133.513 110.107, 137.930 113.480, 146.469 114.651 C 151.180 115.297, 153.597 113.457, 152.515 110.048 C 151.837 107.912, 150.213 107.651, 146 109 M 48.529 109.954 C 48.143 110.577, 48.313 111.672, 48.905 112.386 C 49.498 113.100, 49.687 113.980, 49.325 114.342 C 48.963 114.704, 50.781 115, 53.365 115 C 58.658 115, 65.871 112.442, 64.427 111.078 C 62.876 109.612, 49.332 108.654, 48.529 109.954 M 115.946 111.102 C 113.912 114.901, 126.153 124, 133.297 124 C 139.484 124, 138.071 115.986, 131.048 111.253 C 126.407 108.126, 117.586 108.037, 115.946 111.102 M 52 117.891 C 47.285 118.529, 44.761 122.927, 48.325 124.294 C 50.615 125.173, 57.328 123.272, 58.737 121.345 C 61.365 117.751, 59.623 116.858, 52 117.891 M 142.296 118.670 C 140.769 122.651, 151.112 125.980, 154.042 122.450 C 155.930 120.175, 153.578 118.387, 147.713 117.639 C 143.827 117.143, 142.808 117.337, 142.296 118.670 M 113.022 119.628 C 113.077 124.325, 126.679 147, 129.442 147 C 138.069 147, 127.688 122.626, 118.088 120.340 C 116.664 120.001, 114.938 119.281, 114.250 118.740 C 113.344 118.026, 113.006 118.270, 113.022 119.628 M 80.937 121.263 C 76.416 124.310, 72.473 130.320, 70.570 137.066 C 68.653 143.861, 68.653 143.510, 70.571 145.429 C 72.990 147.847, 73.387 147.545, 78.876 139.096 C 89.976 122.013, 90.833 114.594, 80.937 121.263 M 90.072 126.750 C 89.386 128.262, 87.084 132.052, 84.959 135.170 C 79.011 143.895, 77.464 148.135, 79.646 149.730 C 81.926 151.398, 83.478 151.334, 84.991 149.511 C 85.671 148.692, 86.626 148.269, 87.115 148.571 C 88.515 149.436, 90.207 143.957, 90.120 138.842 C 90.076 136.280, 90.701 132.005, 91.509 129.342 C 93.460 122.912, 92.556 121.280, 90.072 126.750 M 51.514 127.366 C 49.413 128.903, 50.798 134.325, 53.563 135.386 C 56.237 136.412, 60.207 129.762, 58.535 127.057 C 57.617 125.571, 53.735 125.742, 51.514 127.366 M 110.534 129.605 C 110.980 131.747, 111.380 135.600, 111.422 138.167 C 111.465 140.733, 111.838 143.171, 112.250 143.583 C 112.662 143.996, 113 145.147, 113 146.141 C 113 149.339, 120.416 152.184, 122.727 149.873 C 124.402 148.198, 116.004 131.602, 112.755 130.167 C 112.340 129.983, 112 129.222, 112 128.476 C 112 127.729, 111.488 126.801, 110.862 126.414 C 110.035 125.904, 109.945 126.777, 110.534 129.605 M 142.507 126.989 C 141.819 128.102, 144.682 134.685, 146.285 135.676 C 147.633 136.509, 152 131.446, 152 129.051 C 152 126.244, 144.036 124.514, 142.507 126.989 M 61.629 131.250 C 57.991 136.030, 57.338 139.575, 59.846 140.918 C 64.923 143.635, 67.210 141.453, 68.533 132.630 C 69.435 126.613, 65.722 125.871, 61.629 131.250 M 132.423 129.340 C 131.714 131.187, 135.761 141.694, 137.427 142.334 C 138.860 142.883, 143 139.611, 143 137.929 C 143 131.859, 134.199 124.712, 132.423 129.340 M 98 139 C 98 139.550, 98.450 140, 99 140 C 99.550 140, 100 139.550, 100 139 C 100 138.450, 99.550 138, 99 138 C 98.450 138, 98 138.450, 98 139" stroke="none" fill="#9f1b90" fill-rule="evenodd"/></svg>